<svg width="99" height="120" viewBox="0 0 99 120" fill="none" xmlns="http://www.w3.org/2000/svg">
<g clip-path="url(#clip0)">
<path d="M49.4545 120L49.2403 119.944C48.7745 119.833 37.6428 117.11 25.915 108.376C15.0814 100.302 1.78852 85.3705 0 60.0883V21.6307L49.4545 0L98.9091 21.6307V60.0232C97.1206 85.3705 83.8277 100.302 72.9941 108.367C61.2663 117.101 50.1346 119.823 49.6688 119.935L49.4545 120ZM1.86305 22.8479V60.0232C5.05817 105.282 46.0824 117.175 49.4545 118.077C52.8267 117.175 93.8509 105.245 97.046 59.9582V22.8479L49.4545 2.02555L1.86305 22.8479Z" fill="white"/>
<path d="M20.4842 37.7794C20.3259 37.8444 20.1954 37.9373 20.0743 38.0581C19.9626 38.1882 19.8694 38.3462 19.8042 38.5413C19.739 38.7364 19.7204 38.9315 19.739 39.1174C19.7576 39.3032 19.8228 39.489 19.916 39.647C20.0091 39.8142 20.1396 39.9629 20.3072 40.0837C20.4749 40.2045 20.6612 40.316 20.8755 40.381C21.099 40.4553 21.3133 40.4832 21.5182 40.4739C21.7231 40.4646 21.9094 40.4182 22.0864 40.3438C22.2634 40.2695 22.4125 40.158 22.5429 40.0279C22.6733 39.8886 22.7664 39.7306 22.8223 39.5448C22.8875 39.3311 22.9062 39.1266 22.8689 38.9408C22.8317 38.7457 22.7571 38.5692 22.6267 38.4205L23.5489 37.7701C23.7632 38.0581 23.8843 38.374 23.9215 38.7271C23.9588 39.0709 23.9215 39.4147 23.8191 39.7306C23.698 40.1023 23.5303 40.4182 23.316 40.6876C23.1018 40.9571 22.8503 41.1708 22.5615 41.3287C22.2727 41.4867 21.956 41.5796 21.6114 41.6075C21.2667 41.6354 20.9034 41.5889 20.5215 41.4681C20.1396 41.3473 19.8228 41.1708 19.562 40.9478C19.3012 40.7248 19.0963 40.4646 18.9472 40.1673C18.8075 39.87 18.7236 39.5541 18.7143 39.201C18.6957 38.8572 18.7516 38.4948 18.8727 38.1325C18.9193 38.0024 18.9752 37.863 19.0404 37.7329C19.1056 37.6028 19.1987 37.4635 19.2919 37.3427C19.385 37.2219 19.5061 37.1104 19.6365 37.0082C19.7669 36.906 19.916 36.8316 20.0743 36.7666L20.4842 37.7794Z" fill="white"/>
<path d="M22.1051 36.6825C21.7604 36.4967 21.4716 36.2644 21.2574 35.995C21.0431 35.7255 20.8848 35.4282 20.8009 35.1123C20.7171 34.7964 20.6985 34.4712 20.745 34.1274C20.7916 33.7836 20.9127 33.4398 21.099 33.1053C21.2853 32.7708 21.5089 32.4828 21.7697 32.2598C22.0305 32.0368 22.3193 31.8695 22.636 31.7673C22.9434 31.6651 23.2788 31.6372 23.6234 31.6744C23.9681 31.7116 24.3128 31.8231 24.6668 32.0182C25.0114 32.204 25.3002 32.4363 25.5144 32.7058C25.7287 32.9752 25.887 33.2726 25.9709 33.5885C26.0547 33.9044 26.0734 34.2296 26.0268 34.5734C25.9802 34.9171 25.8591 35.2609 25.6728 35.5954C25.4865 35.9299 25.2629 36.218 25.0021 36.441C24.7413 36.664 24.4525 36.8312 24.1451 36.9334C23.8377 37.0356 23.5024 37.0635 23.1577 37.0263C22.813 36.9892 22.4497 36.8777 22.1051 36.6825ZM22.6453 35.6976C22.8503 35.8091 23.0552 35.8835 23.2602 35.9113C23.4651 35.9392 23.6607 35.9299 23.847 35.8835C24.0333 35.837 24.2103 35.7441 24.3687 35.614C24.527 35.4839 24.6668 35.326 24.7785 35.1216C24.8903 34.9171 24.9555 34.7127 24.9742 34.5083C24.9928 34.3039 24.9742 34.1088 24.9183 33.923C24.8624 33.7371 24.7599 33.5699 24.6295 33.4119C24.4991 33.254 24.3221 33.1239 24.1172 33.0124C23.9215 32.9009 23.7166 32.8358 23.5117 32.7987C23.3067 32.7615 23.1111 32.7801 22.9155 32.8266C22.7292 32.873 22.5522 32.9659 22.3938 33.096C22.2355 33.2261 22.0958 33.3933 21.984 33.5885C21.8722 33.7929 21.807 33.9973 21.7883 34.2017C21.7697 34.4061 21.7883 34.6012 21.8442 34.7871C21.9001 34.9729 22.0026 35.1401 22.1423 35.2981C22.2821 35.4561 22.4497 35.5861 22.6453 35.6976Z" fill="white"/>
<path d="M23.3905 29.5191L24.4804 28.2833L27.6569 29.547L27.6662 29.5377L25.9895 26.5551L27.07 25.3193L30.7961 28.5621L30.0788 29.3797L27.2191 26.8896L27.2097 26.8989L29.2125 30.3646L28.6629 30.9872L24.9834 29.4355L24.9741 29.4448L27.8339 31.9349L27.1166 32.7526L23.3905 29.5191Z" fill="white"/>
<path d="M28.4301 24.1951L29.8832 23.0709C30.0882 22.9129 30.2931 22.7828 30.498 22.6806C30.703 22.5784 30.9172 22.5227 31.1222 22.5041C31.3271 22.4855 31.532 22.5319 31.7276 22.6156C31.9233 22.6992 32.1096 22.8664 32.2959 23.0987C32.4729 23.331 32.5846 23.5447 32.6312 23.7584C32.6778 23.9721 32.6685 24.1673 32.6126 24.3624C32.5567 24.5575 32.4542 24.734 32.3052 24.9106C32.1561 25.0871 31.9792 25.2544 31.7742 25.4123L31.1408 25.8955L32.3238 27.4193L31.4668 28.0883L28.4301 24.1951ZM30.5726 25.18L31.1501 24.734C31.2246 24.6783 31.2991 24.6132 31.355 24.5389C31.4109 24.4646 31.4575 24.3902 31.4948 24.3159C31.532 24.2416 31.532 24.158 31.5227 24.065C31.5134 23.9721 31.4668 23.8885 31.4016 23.7956C31.3271 23.6934 31.2432 23.6376 31.1501 23.6098C31.0569 23.5819 30.9638 23.5819 30.8613 23.6098C30.7682 23.6283 30.6657 23.6748 30.5726 23.7306C30.4794 23.7863 30.3863 23.8513 30.3117 23.9164L29.8739 24.2602L30.5726 25.18Z" fill="white"/>
<path d="M32.5009 21.2124L35.4445 19.5957L35.9289 20.4784L33.9447 21.5748L34.3918 22.3832L36.2735 21.3518L36.7579 22.2345L34.8762 23.2659L35.3606 24.1485L37.4566 22.9964L37.9409 23.8791L34.8856 25.5609L32.5009 21.2124Z" fill="white"/>
<path d="M36.9629 18.8616L38.3695 18.3878L41.4621 20.9708H41.4715L40.3723 17.7188L41.4063 17.375L42.9805 22.0486L41.6298 22.5039L38.4626 19.8651H38.4533L39.5805 23.1915L38.5465 23.5353L36.9629 18.8616Z" fill="white"/>
<path d="M45.626 17.8675C45.5235 17.7746 45.3931 17.7096 45.2347 17.6817C45.0764 17.6538 44.9273 17.6445 44.7969 17.6724C44.7224 17.6817 44.6386 17.7096 44.564 17.7374C44.4802 17.7653 44.4057 17.8118 44.3405 17.8582C44.2753 17.9047 44.2194 17.9697 44.1821 18.044C44.1449 18.1184 44.1355 18.1927 44.1449 18.2856C44.1635 18.4343 44.238 18.5365 44.3591 18.6015C44.4802 18.6666 44.6292 18.7037 44.8062 18.7409C44.9832 18.7688 45.1695 18.7967 45.3745 18.8245C45.5794 18.8524 45.7657 18.8989 45.952 18.9732C46.1383 19.0475 46.2967 19.159 46.4364 19.317C46.5761 19.4656 46.66 19.6886 46.7065 19.9767C46.7438 20.2461 46.7345 20.4877 46.66 20.7107C46.5948 20.9244 46.483 21.1195 46.3246 21.2775C46.1756 21.4355 45.9893 21.5655 45.7657 21.6677C45.5515 21.7699 45.3093 21.835 45.0577 21.8722C44.741 21.9186 44.4336 21.9186 44.1542 21.8629C43.8747 21.8071 43.5859 21.6956 43.3251 21.5098L43.9585 20.5528C44.089 20.6828 44.2473 20.7758 44.4243 20.8315C44.6013 20.8873 44.7876 20.8965 44.9646 20.8687C45.0484 20.8594 45.1416 20.8315 45.2254 20.7943C45.3093 20.7572 45.3838 20.72 45.449 20.6643C45.5142 20.6085 45.5608 20.5528 45.598 20.4784C45.6353 20.4041 45.6446 20.3298 45.626 20.2368C45.6073 20.0882 45.5328 19.986 45.4024 19.9116C45.2813 19.8466 45.123 19.7909 44.946 19.763C44.769 19.7258 44.5734 19.6979 44.3684 19.6701C44.1635 19.6422 43.9679 19.5864 43.7816 19.5121C43.5953 19.4378 43.4369 19.3263 43.2972 19.1776C43.1574 19.0289 43.0643 18.8245 43.027 18.5458C42.9898 18.2856 42.9991 18.044 43.0736 17.8303C43.1481 17.6166 43.2599 17.4308 43.4089 17.2728C43.558 17.1149 43.7443 16.9848 43.9585 16.8826C44.1728 16.7804 44.3964 16.7154 44.6386 16.6782C44.918 16.6317 45.1882 16.6317 45.4583 16.6689C45.7284 16.7061 45.98 16.799 46.2128 16.9569L45.626 17.8675Z" fill="white"/>
<path d="M49.2962 16.4365L50.1998 16.4551L52.2678 21.4261L51.0382 21.4075L50.6283 20.3575L48.7094 20.3297L48.2809 21.3703L47.0792 21.3517L49.2962 16.4365ZM49.6968 17.886L49.0727 19.4098L50.2837 19.4284L49.6968 17.886Z" fill="white"/>
<path d="M53.5161 17.6629L52.1188 17.4585L52.2585 16.5107L56.1336 17.0775L55.9939 18.0253L54.5966 17.8208L54.0098 21.7512L52.9292 21.5932L53.5161 17.6629Z" fill="white"/>
<path d="M57.0371 17.3379L58.0898 17.6073L56.8508 22.3832L55.7982 22.1137L57.0371 17.3379Z" fill="white"/>
<path d="M58.3785 20.153C58.5276 19.7906 58.7325 19.484 58.9747 19.2424C59.2169 19.0009 59.4963 18.815 59.8037 18.7035C60.1111 18.5828 60.4372 18.5363 60.7818 18.5456C61.1265 18.5549 61.4805 18.6385 61.8345 18.7872C62.1884 18.9358 62.4958 19.131 62.7474 19.3632C62.9989 19.5955 63.1945 19.865 63.3249 20.1623C63.4553 20.4596 63.5205 20.7848 63.5205 21.1286C63.5205 21.4724 63.446 21.8348 63.2876 22.1972C63.1293 22.5595 62.9337 22.8661 62.6915 23.1077C62.4493 23.3493 62.1698 23.5351 61.8624 23.6466C61.555 23.7674 61.229 23.8139 60.8843 23.8046C60.5396 23.7953 60.1857 23.7117 59.8317 23.563C59.4777 23.4143 59.1703 23.2192 58.9188 22.9869C58.6673 22.7546 58.4717 22.4852 58.3413 22.1879C58.2108 21.8905 58.1456 21.5653 58.1456 21.2215C58.1456 20.8778 58.2295 20.5154 58.3785 20.153ZM59.4218 20.5804C59.3287 20.7941 59.2821 21.0078 59.2728 21.2123C59.2635 21.4167 59.3007 21.6118 59.3659 21.7976C59.4404 21.9834 59.5429 22.1414 59.6826 22.2901C59.8224 22.4387 60.0087 22.5502 60.2229 22.6431C60.4372 22.7361 60.6514 22.7732 60.847 22.7732C61.052 22.7732 61.2476 22.7361 61.4246 22.6524C61.6016 22.5688 61.7599 22.4573 61.909 22.3087C62.058 22.16 62.1698 21.9742 62.2536 21.7605C62.3375 21.5467 62.3934 21.3423 62.3934 21.1379C62.4027 20.9335 62.3747 20.7384 62.3002 20.5526C62.2257 20.3667 62.1232 20.2088 61.9835 20.0601C61.8438 19.9114 61.6575 19.7999 61.4432 19.707C61.229 19.6141 61.0147 19.5769 60.8098 19.5769C60.6048 19.5769 60.4092 19.6141 60.2322 19.6977C60.0553 19.7814 59.8969 19.8929 59.7478 20.0415C59.5988 20.1902 59.515 20.376 59.4218 20.5804Z" fill="white"/>
<path d="M65.5979 20.6826L66.8182 21.5189L66.6225 25.5328L66.6319 25.5421L68.5694 22.7082L69.473 23.3214L66.6877 27.4004L65.514 26.6013L65.7097 22.4852L65.7003 22.4759L63.7162 25.3655L62.8126 24.7523L65.5979 20.6826Z" fill="white"/>
<path d="M72.4725 26.0718L74.6802 28.5433L73.9256 29.2123L72.4445 27.5491L71.69 28.2181L73.0593 29.7512L72.3048 30.4202L70.9355 28.8871L69.4916 30.1693L68.765 29.361L72.4725 26.0718Z" fill="white"/>
<path d="M75.1926 34.7686C74.9411 34.9265 74.6896 35.0288 74.4381 35.0845C74.1866 35.1403 73.935 35.1403 73.6835 35.0938C73.432 35.0473 73.1991 34.9358 72.9756 34.7686C72.752 34.6013 72.5471 34.3784 72.3608 34.0903C72.1745 33.8023 72.0534 33.5142 72.0068 33.2448C71.9509 32.966 71.9602 32.7152 72.0161 32.4643C72.072 32.2227 72.1838 31.9904 72.3515 31.786C72.5098 31.5816 72.7147 31.3958 72.9663 31.2378L75.5373 29.6211L76.1148 30.541L73.5811 32.1391C73.4506 32.2227 73.3482 32.3156 73.2643 32.4271C73.1805 32.5386 73.1246 32.6594 73.0874 32.7802C73.0501 32.901 73.0501 33.0311 73.0687 33.1705C73.0874 33.3005 73.1339 33.4306 73.2178 33.5514C73.3016 33.6722 73.3854 33.7744 73.4972 33.8394C73.609 33.9045 73.7301 33.9602 73.8512 33.9881C73.9816 34.016 74.112 34.0067 74.2518 33.9788C74.3915 33.9509 74.5219 33.8952 74.6523 33.8116L77.1861 32.2134L77.7729 33.1333L75.1926 34.7686Z" fill="white"/>
<path d="M78.5833 34.7222L79.1236 36.0973L76.683 39.2936L76.6923 39.3029L79.8967 38.0578L80.288 39.0706L75.6769 40.8639L75.1646 39.5352L77.6611 36.2553L77.6518 36.246L74.3728 37.5189L73.9816 36.5061L78.5833 34.7222Z" fill="white"/>
<path d="M80.7444 40.771L81.0332 42.3784C81.0984 42.7687 81.1263 43.1403 81.0984 43.512C81.0705 43.8837 80.9866 44.2089 80.8376 44.5062C80.6885 44.8035 80.4743 45.0544 80.1855 45.2588C79.8967 45.4632 79.5334 45.6119 79.0956 45.6862C78.7044 45.7605 78.3411 45.742 78.0151 45.649C77.689 45.5561 77.4003 45.3982 77.1487 45.1845C76.8972 44.9708 76.6923 44.7106 76.5246 44.3947C76.357 44.0881 76.2452 43.7443 76.18 43.3912L75.8726 41.6444L80.7444 40.771ZM77.0556 42.5271L77.1581 43.0846C77.2046 43.3355 77.2698 43.5585 77.3537 43.7629C77.4375 43.9673 77.5586 44.1345 77.7077 44.2739C77.8567 44.4133 78.0244 44.5062 78.2293 44.5619C78.4343 44.6177 78.6764 44.6177 78.9559 44.5712C79.1981 44.5248 79.3937 44.4504 79.5521 44.3296C79.7104 44.2089 79.8409 44.0602 79.9247 43.8929C80.0085 43.7257 80.0644 43.5306 80.083 43.3169C80.1017 43.1032 80.0924 42.8802 80.0551 42.6572L79.9433 42.0254L77.0556 42.5271Z" fill="white"/>
<path d="M29.5852 89.5696C29.2592 89.9506 28.812 90.2665 28.2438 90.4988C27.6756 90.7311 27.0608 90.8519 26.3994 90.8519C25.3002 90.8519 24.4153 90.5638 23.7446 89.9785C23.0739 89.3931 22.6267 88.5383 22.4032 87.414H21.2108L21.6207 86.0853H22.2448C22.2355 86.0389 22.2262 85.9924 22.2262 85.9552C22.2262 85.9181 22.2262 85.8716 22.2262 85.8252V85.5464C22.2262 85.4163 22.2262 85.2955 22.2355 85.1748C22.2355 85.054 22.2448 84.9425 22.2541 84.8217H21.2481L21.7045 83.4651H22.4684C22.7665 82.3408 23.2974 81.486 24.0613 80.9285C24.8251 80.3617 25.8125 80.083 26.9956 80.083C27.1632 80.083 27.3589 80.0923 27.5824 80.1202C27.806 80.148 28.0296 80.1759 28.2438 80.2131C28.4674 80.2503 28.6723 80.2874 28.8586 80.3432C29.0449 80.3989 29.1846 80.4547 29.2871 80.5104L28.6071 82.4245C28.4581 82.3223 28.2438 82.2386 27.9457 82.1643C27.6569 82.09 27.3402 82.0528 26.9956 82.0528C26.4925 82.0528 26.0547 82.1643 25.6821 82.3873C25.3095 82.6103 25.0114 82.9727 24.7972 83.4744H28.2624L27.8153 84.831H24.4805C24.4711 84.9425 24.4618 85.0447 24.4618 85.1562C24.4525 85.2677 24.4525 85.3792 24.4525 85.4907V85.7973C24.4525 85.8437 24.4525 85.8995 24.4525 85.946C24.4525 85.9924 24.4618 86.0482 24.4711 86.0946H27.48L27.0515 87.4233H24.6854C24.8344 87.9065 25.058 88.2781 25.3747 88.5476C25.6821 88.817 26.092 88.9564 26.595 88.9564C27.0049 88.9564 27.3589 88.8821 27.6383 88.7241C27.9178 88.5662 28.16 88.3617 28.3742 88.1016L29.5852 89.5696Z" fill="white"/>
<path d="M30.5167 88.3344L34.5782 84.7014C34.7831 84.5156 34.988 84.3019 35.2023 84.0696C35.4165 83.8373 35.5097 83.5585 35.5097 83.2426C35.5097 82.8895 35.3793 82.6108 35.1278 82.4064C34.8669 82.202 34.5689 82.1091 34.2242 82.1091C33.8143 82.1091 33.4883 82.2391 33.2554 82.49C33.0225 82.7409 32.8921 83.0568 32.8642 83.4284L30.6471 83.2705C30.6751 82.7316 30.7869 82.2577 30.9825 81.8675C31.1781 81.4679 31.4389 81.1427 31.765 80.8733C32.091 80.6038 32.4729 80.4087 32.9107 80.2786C33.3486 80.1485 33.8236 80.0835 34.336 80.0835C34.811 80.0835 35.2489 80.1485 35.668 80.2786C36.0779 80.4087 36.4412 80.6038 36.7486 80.864C37.056 81.1241 37.2889 81.4494 37.4659 81.8396C37.6336 82.2298 37.7267 82.6851 37.7267 83.2055C37.7267 83.5399 37.6894 83.8373 37.6242 84.1067C37.559 84.3762 37.4566 84.6178 37.3355 84.8408C37.2144 85.0638 37.0653 85.2682 36.8977 85.454C36.73 85.6398 36.5437 85.8257 36.3481 86.0022L33.1716 88.7246H37.8105V90.6665H30.5167V88.3344Z" fill="white"/>
<path d="M39.0215 85.4633C39.0215 84.8408 39.0774 84.2182 39.1892 83.5771C39.3009 82.936 39.5059 82.3599 39.7946 81.8396C40.0834 81.3193 40.484 80.8919 40.987 80.5667C41.49 80.2415 42.1235 80.0742 42.9059 80.0742C43.6884 80.0742 44.3218 80.2415 44.8249 80.5667C45.3279 80.8919 45.7191 81.3193 46.0172 81.8396C46.3153 82.3599 46.5109 82.936 46.6227 83.5771C46.7345 84.2182 46.7904 84.8408 46.7904 85.4633C46.7904 86.0858 46.7345 86.7084 46.6227 87.3495C46.5109 87.9906 46.306 88.5667 46.0172 89.087C45.7284 89.6073 45.3279 90.0347 44.8249 90.3599C44.3218 90.6851 43.6791 90.8524 42.9059 90.8524C42.1328 90.8524 41.49 90.6851 40.987 90.3599C40.484 90.0347 40.0927 89.6073 39.7946 89.087C39.5059 88.5667 39.3009 87.9906 39.1892 87.3495C39.0774 86.7084 39.0215 86.0858 39.0215 85.4633ZM41.2292 85.4633C41.2292 85.7421 41.2385 86.0673 41.2665 86.4482C41.2944 86.8292 41.3596 87.2008 41.4621 87.5539C41.5739 87.907 41.7322 88.2043 41.9558 88.4552C42.1793 88.6968 42.4867 88.8268 42.8966 88.8268C43.2879 88.8268 43.5953 88.706 43.8281 88.4552C44.0517 88.2136 44.2194 87.907 44.3312 87.5539C44.4429 87.2008 44.5081 86.8292 44.5268 86.4482C44.5454 86.0673 44.564 85.7328 44.564 85.4633C44.564 85.1846 44.5547 84.8594 44.5268 84.4784C44.4988 84.0974 44.4336 83.7258 44.3312 83.3727C44.2287 83.0196 44.0517 82.7223 43.8281 82.4714C43.6046 82.2299 43.2879 82.0998 42.8966 82.0998C42.4961 82.0998 42.1793 82.2206 41.9558 82.4714C41.7322 82.713 41.5645 83.0196 41.4621 83.3727C41.3596 83.7258 41.2851 84.0974 41.2665 84.4784C41.2478 84.8594 41.2292 85.1846 41.2292 85.4633Z" fill="white"/>
<path d="M48.6162 88.2881H50.74L49.408 92.4414H47.517L48.6162 88.2881Z" fill="white"/>
<path d="M52.1281 85.4633C52.1281 84.8408 52.1839 84.2182 52.2957 83.5771C52.4075 82.936 52.6124 82.3599 52.9012 81.8396C53.19 81.3193 53.5905 80.8919 54.0936 80.5667C54.5966 80.2415 55.23 80.0742 56.0125 80.0742C56.795 80.0742 57.4284 80.2415 57.9314 80.5667C58.4345 80.8919 58.8257 81.3193 59.1238 81.8396C59.4219 82.3599 59.6175 82.936 59.7293 83.5771C59.8411 84.2182 59.8969 84.8408 59.8969 85.4633C59.8969 86.0858 59.8411 86.7084 59.7293 87.3495C59.6175 87.9906 59.4126 88.5667 59.1238 89.087C58.835 89.6073 58.4345 90.0347 57.9314 90.3599C57.4284 90.6851 56.7857 90.8524 56.0125 90.8524C55.2393 90.8524 54.5966 90.6851 54.0936 90.3599C53.5905 90.0347 53.1993 89.6073 52.9012 89.087C52.6124 88.5667 52.4075 87.9906 52.2957 87.3495C52.1839 86.7084 52.1281 86.0858 52.1281 85.4633ZM54.3358 85.4633C54.3358 85.7421 54.3451 86.0673 54.373 86.4482C54.401 86.8292 54.4662 87.2008 54.5686 87.5539C54.6804 87.907 54.8388 88.2043 55.0623 88.4552C55.2859 88.6968 55.5933 88.8268 56.0032 88.8268C56.3944 88.8268 56.7018 88.706 56.9347 88.4552C57.1583 88.2136 57.3259 87.907 57.4377 87.5539C57.5495 87.2008 57.6147 86.8292 57.6333 86.4482C57.652 86.0673 57.6706 85.7328 57.6706 85.4633C57.6706 85.1846 57.6613 84.8594 57.6333 84.4784C57.6054 84.0974 57.5402 83.7258 57.4377 83.3727C57.3353 83.0196 57.1583 82.7223 56.9347 82.4714C56.7111 82.2299 56.3944 82.0998 56.0032 82.0998C55.6026 82.0998 55.2859 82.2206 55.0623 82.4714C54.8388 82.713 54.6711 83.0196 54.5686 83.3727C54.4662 83.7258 54.3917 84.0974 54.373 84.4784C54.3544 84.8594 54.3358 85.1846 54.3358 85.4633Z" fill="white"/>
<path d="M60.8657 85.4633C60.8657 84.8408 60.9216 84.2182 61.0334 83.5771C61.1452 82.936 61.3501 82.3599 61.6389 81.8396C61.9277 81.3193 62.3282 80.8919 62.8312 80.5667C63.3343 80.2415 63.9677 80.0742 64.7502 80.0742C65.5327 80.0742 66.1661 80.2415 66.6691 80.5667C67.1721 80.8919 67.5634 81.3193 67.8615 81.8396C68.1595 82.3599 68.3552 82.936 68.467 83.5771C68.5787 84.2182 68.6346 84.8408 68.6346 85.4633C68.6346 86.0858 68.5787 86.7084 68.467 87.3495C68.3552 87.9906 68.1502 88.5667 67.8615 89.087C67.5727 89.6073 67.1721 90.0347 66.6691 90.3599C66.1661 90.6851 65.5233 90.8524 64.7502 90.8524C63.977 90.8524 63.3343 90.6851 62.8312 90.3599C62.3282 90.0347 61.937 89.6073 61.6389 89.087C61.3501 88.5667 61.1452 87.9906 61.0334 87.3495C60.9216 86.7084 60.8657 86.0858 60.8657 85.4633ZM63.0828 85.4633C63.0828 85.7421 63.0921 86.0673 63.12 86.4482C63.148 86.8292 63.2132 87.2008 63.3156 87.5539C63.4274 87.907 63.5858 88.2043 63.8093 88.4552C64.0329 88.6968 64.3403 88.8268 64.7502 88.8268C65.1414 88.8268 65.4488 88.706 65.6817 88.4552C65.9053 88.2136 66.0729 87.907 66.1847 87.5539C66.2965 87.2008 66.3617 86.8292 66.3803 86.4482C66.399 86.0673 66.4176 85.7328 66.4176 85.4633C66.4176 85.1846 66.4083 84.8594 66.3803 84.4784C66.3524 84.0974 66.2872 83.7258 66.1847 83.3727C66.0823 83.0196 65.9053 82.7223 65.6817 82.4714C65.4581 82.2299 65.1414 82.0998 64.7502 82.0998C64.3496 82.0998 64.0329 82.2206 63.8093 82.4714C63.5858 82.713 63.4181 83.0196 63.3156 83.3727C63.2132 83.7258 63.1386 84.0974 63.12 84.4784C63.1014 84.8594 63.0828 85.1846 63.0828 85.4633Z" fill="white"/>
<path d="M69.6034 85.4633C69.6034 84.8408 69.6593 84.2182 69.7711 83.5771C69.8829 82.936 70.0878 82.3599 70.3766 81.8396C70.6653 81.3193 71.0659 80.8919 71.5689 80.5667C72.0719 80.2415 72.7054 80.0742 73.4878 80.0742C74.2703 80.0742 74.9038 80.2415 75.4068 80.5667C75.9098 80.8919 76.301 81.3193 76.5991 81.8396C76.8972 82.3599 77.0928 82.936 77.2046 83.5771C77.3164 84.2182 77.3723 84.8408 77.3723 85.4633C77.3723 86.0858 77.3164 86.7084 77.2046 87.3495C77.0928 87.9906 76.8879 88.5667 76.5991 89.087C76.3104 89.6073 75.9098 90.0347 75.4068 90.3599C74.9038 90.6851 74.261 90.8524 73.4878 90.8524C72.7147 90.8524 72.0719 90.6851 71.5689 90.3599C71.0659 90.0347 70.6746 89.6073 70.3766 89.087C70.0878 88.5667 69.8829 87.9906 69.7711 87.3495C69.6593 86.7084 69.6034 86.0858 69.6034 85.4633ZM71.8204 85.4633C71.8204 85.7421 71.8297 86.0673 71.8577 86.4482C71.8856 86.8292 71.9508 87.2008 72.0533 87.5539C72.1651 87.907 72.3234 88.2043 72.547 88.4552C72.7706 88.6968 73.078 88.8268 73.4878 88.8268C73.8791 88.8268 74.1865 88.706 74.4194 88.4552C74.6429 88.2136 74.8106 87.907 74.9224 87.5539C75.0342 87.2008 75.0994 86.8292 75.118 86.4482C75.1366 86.0673 75.1553 85.7328 75.1553 85.4633C75.1553 85.1846 75.146 84.8594 75.118 84.4784C75.0901 84.0974 75.0249 83.7258 74.9224 83.3727C74.8199 83.0196 74.6429 82.7223 74.4194 82.4714C74.1958 82.2299 73.8791 82.0998 73.4878 82.0998C73.0873 82.0998 72.7706 82.2206 72.547 82.4714C72.3234 82.713 72.1558 83.0196 72.0533 83.3727C71.9508 83.7258 71.8763 84.0974 71.8577 84.4784C71.839 84.8594 71.8204 85.1846 71.8204 85.4633Z" fill="white"/>
<path d="M49.4545 71.1823C60.7316 71.1823 69.8735 62.0637 69.8735 50.8153C69.8735 39.5669 60.7316 30.4482 49.4545 30.4482C38.1774 30.4482 29.0355 39.5669 29.0355 50.8153C29.0355 62.0637 38.1774 71.1823 49.4545 71.1823Z" fill="white"/>
<path d="M49.6408 37.6309C49.6408 37.6309 36.6834 43.6239 36.4412 43.6239H62.3654L49.6408 37.6309Z" fill="#203146"/>
<path d="M61.1172 44.0327H37.6987V44.4137H61.1172V44.0327Z" fill="#203146"/>
<path d="M61.5364 60.0049H37.6987V60.6553H61.5364V60.0049Z" fill="#203146"/>
<path d="M62.8125 60.9062H36.0964V61.5566H62.8125V60.9062Z" fill="#203146"/>
<path d="M60.6886 44.6367H38.2576V45.9654H60.6886V44.6367ZM40.8099 45.7145C40.5771 45.7145 40.4001 45.5287 40.4001 45.3057C40.4001 45.0734 40.5864 44.8969 40.8099 44.8969C41.0335 44.8969 41.2198 45.0827 41.2198 45.3057C41.2291 45.5287 41.0428 45.7145 40.8099 45.7145ZM46.604 45.7145C46.3711 45.7145 46.1941 45.5287 46.1941 45.3057C46.1941 45.0734 46.3805 44.8969 46.604 44.8969C46.8276 44.8969 47.0139 45.0827 47.0139 45.3057C47.0232 45.5287 46.8369 45.7145 46.604 45.7145ZM52.3981 45.7145C52.1652 45.7145 51.9882 45.5287 51.9882 45.3057C51.9882 45.0734 52.1745 44.8969 52.3981 44.8969C52.6217 44.8969 52.808 45.0827 52.808 45.3057C52.8173 45.5287 52.631 45.7145 52.3981 45.7145ZM58.1922 45.7145C57.9593 45.7145 57.7823 45.5287 57.7823 45.3057C57.7823 45.0734 57.9686 44.8969 58.1922 44.8969C58.425 44.8969 58.602 45.0827 58.602 45.3057C58.6114 45.5287 58.425 45.7145 58.1922 45.7145Z" fill="#203146"/>
<path d="M42.8035 46.5044H38.8165V46.9411H39.1612V47.3685H39.45V58.89H39.8226V47.3685H40.2324V58.89H40.6051V47.3685H41.0149V58.89H41.3875V47.3685H41.7974V58.89H42.17V47.3685H42.4588V46.9411H42.8035V46.5044Z" fill="#203146"/>
<path d="M39.1612 58.8901V59.3268H38.8165V59.7542H42.8035V59.3268H42.4588V58.8901H39.1612Z" fill="#203146"/>
<path d="M48.5975 46.5044H44.6106V46.9411H44.9553V47.3685H45.244V58.89H45.6166V47.3685H46.0265V58.89H46.3991V47.3685H46.809V58.89H47.1816V47.3685H47.5915V58.89H47.9641V47.3685H48.2528V46.9411H48.5975V46.5044Z" fill="#203146"/>
<path d="M44.9553 58.8901V59.3268H44.6106V59.7542H48.5975V59.3268H48.2528V58.8901H44.9553Z" fill="#203146"/>
<path d="M54.3916 46.5044H50.4047V46.9411H50.7493V47.3685H51.0381V58.89H51.4107V47.3685H51.8206V58.89H52.1932V47.3685H52.6031V58.89H52.9757V47.3685H53.3855V58.89H53.7581V47.3685H54.0469V46.9411H54.3916V46.5044Z" fill="#203146"/>
<path d="M50.7493 58.8901V59.3268H50.4047V59.7542H54.3916V59.3268H54.0469V58.8901H50.7493Z" fill="#203146"/>
<path d="M60.1856 46.5044H56.1987V46.9411H56.5434V47.3685H56.8322V58.89H57.2048V47.3685H57.6146V58.89H57.9873V47.3685H58.3971V58.89H58.7697V47.3685H59.1796V58.89H59.5522V47.3685H59.841V46.9411H60.1856V46.5044Z" fill="#203146"/>
<path d="M56.5434 58.8901V59.3268H56.1987V59.7542H60.1856V59.3268H59.841V58.8901H56.5434Z" fill="#203146"/>
</g>
<defs>
<clipPath id="clip0">
<rect width="98.9091" height="120" fill="white"/>
</clipPath>
</defs>
</svg>
