<svg width="120" height="120" viewBox="0 0 120 120" fill="none" xmlns="http://www.w3.org/2000/svg">
<path d="M59.9942 120C26.9203 120 0 93.0797 0 59.9942C0 26.9087 26.9203 0 59.9942 0C93.0681 0 119.988 26.9203 119.988 59.9942C119.988 93.0681 93.0797 120 59.9942 120ZM59.9942 2.31772C28.1951 2.31772 2.31772 28.1951 2.31772 59.9942C2.31772 91.7933 28.1951 117.671 59.9942 117.671C91.7933 117.671 117.671 91.7933 117.671 59.9942C117.682 28.1951 91.8049 2.31772 59.9942 2.31772Z" fill="white"/>
<path d="M59.9943 100.74C82.4974 100.74 100.74 82.4974 100.74 59.9943C100.74 37.4912 82.4974 19.2488 59.9943 19.2488C37.4912 19.2488 19.2488 37.4912 19.2488 59.9943C19.2488 82.4974 37.4912 100.74 59.9943 100.74Z" fill="white"/>
<path d="M60.3651 33.6187C60.3651 33.6187 34.5109 45.6129 34.0474 45.6129H85.7557L60.3651 33.6187Z" fill="#203146"/>
<path d="M83.2642 46.4241H36.5505V47.1889H83.2642V46.4241Z" fill="#203146"/>
<path d="M84.0986 78.3623H36.5505V79.6602H84.0986V78.3623Z" fill="#203146"/>
<path d="M86.6365 80.1699H33.3521V81.4678H86.6365V80.1699Z" fill="#203146"/>
<path d="M82.4067 47.6409H37.6631V50.2947H82.4067V47.6409ZM42.7505 49.7963C42.2985 49.7963 41.9277 49.4255 41.9277 48.9736C41.9277 48.5216 42.2985 48.1508 42.7505 48.1508C43.2024 48.1508 43.5733 48.5216 43.5733 48.9736C43.5849 49.4255 43.214 49.7963 42.7505 49.7963ZM54.3159 49.7963C53.864 49.7963 53.4931 49.4255 53.4931 48.9736C53.4931 48.5216 53.864 48.1508 54.3159 48.1508C54.7679 48.1508 55.1387 48.5216 55.1387 48.9736C55.1387 49.4255 54.7679 49.7963 54.3159 49.7963ZM65.8697 49.7963C65.4178 49.7963 65.047 49.4255 65.047 48.9736C65.047 48.5216 65.4178 48.1508 65.8697 48.1508C66.3217 48.1508 66.6925 48.5216 66.6925 48.9736C66.7041 49.4255 66.3333 49.7963 65.8697 49.7963ZM77.4352 49.7963C76.9832 49.7963 76.6124 49.4255 76.6124 48.9736C76.6124 48.5216 76.9832 48.1508 77.4352 48.1508C77.8871 48.1508 78.258 48.5216 78.258 48.9736C78.258 49.4255 77.8871 49.7963 77.4352 49.7963Z" fill="#203146"/>
<path d="M46.7368 51.3726H38.7754V52.2301H39.4707V53.0877H40.0501V76.1374H40.7918V53.0877H41.603V76.1374H42.3447V53.0877H43.1675V76.1374H43.9091V53.0877H44.7203V76.1374H45.462V53.0877H46.0414V52.2301H46.7368V51.3726Z" fill="#203146"/>
<path d="M39.4707 76.1489V77.0065H38.7754V77.864H46.7368V77.0065H46.0414V76.1489H39.4707Z" fill="#203146"/>
<path d="M58.2906 51.3726H50.3408V52.2301H51.0245V53.0877H51.604V76.1374H52.3456V53.0877H53.1569V76.1374H53.9101V53.0877H54.7213V76.1374H55.463V53.0877H56.2858V76.1374H57.0274V53.0877H57.5953V52.2301H58.2906V51.3726Z" fill="#203146"/>
<path d="M51.0245 76.1489V77.0065H50.3408V77.864H58.2906V77.0065H57.5953V76.1489H51.0245Z" fill="#203146"/>
<path d="M69.8446 51.3726H61.8948V52.2301H62.5901V53.0877H63.1579V76.1374H63.8996V53.0877H64.7224V76.1374H65.4641V53.0877H66.2753V76.1374H67.0285V53.0877H67.8397V76.1374H68.5814V53.0877H69.1608V52.2301H69.8446V51.3726Z" fill="#203146"/>
<path d="M62.5901 76.1489V77.0065H61.8948V77.864H69.8446V77.0065H69.1608V76.1489H62.5901Z" fill="#203146"/>
<path d="M81.4101 51.3726H73.4487V52.2301H74.144V53.0877H74.7235V76.1374H75.4651V53.0877H76.2763V76.1374H77.018V53.0877H77.8408V76.1374H78.5825V53.0877H79.3937V76.1374H80.1353V53.0877H80.7148V52.2301H81.4101V51.3726Z" fill="#203146"/>
<path d="M74.144 76.1489V77.0065H73.4487V77.864H81.4101V77.0065H80.7148V76.1489H74.144Z" fill="#203146"/>
<path d="M32.7379 16.8499L30.7563 18.113L34.1517 23.467L33.4332 23.9189L30.0378 18.565L28.0561 19.8282L27.6389 19.1676L32.3323 16.2009L32.7379 16.8499Z" fill="white"/>
<path d="M33.3984 15.0884L34.1053 14.7407L35.6698 17.9276L35.693 17.916C35.7046 17.8117 35.7277 17.6958 35.7741 17.5683C35.8205 17.4409 35.8784 17.325 35.9711 17.1975C36.0522 17.07 36.1565 16.9541 36.284 16.8383C36.4115 16.7224 36.5505 16.6297 36.7128 16.5485C36.9909 16.4095 37.2459 16.3399 37.4892 16.3284C37.7326 16.3168 37.9528 16.3515 38.1614 16.4327C38.3699 16.5138 38.5554 16.6528 38.7176 16.8383C38.8798 17.0237 39.0305 17.2439 39.158 17.4872L40.4327 20.0947L39.7258 20.4423L38.4858 17.9044C38.312 17.5452 38.0918 17.3134 37.8369 17.1743C37.5819 17.0469 37.2806 17.0584 36.9561 17.2207C36.7244 17.3366 36.5505 17.464 36.4231 17.6263C36.2956 17.7885 36.2145 17.9624 36.1797 18.1594C36.1449 18.3564 36.1565 18.565 36.1913 18.7851C36.2376 19.0053 36.3188 19.2371 36.4347 19.4805L37.4429 21.5432L36.736 21.8909L33.3984 15.0884Z" fill="white"/>
<path d="M45.2767 17.3596C45.1377 17.8 44.9291 18.1361 44.6625 18.391C44.396 18.646 44.0599 18.843 43.6427 18.9936C43.2951 19.1211 42.959 19.1674 42.6461 19.1443C42.3216 19.1211 42.0319 19.04 41.7654 18.9009C41.4989 18.7618 41.2555 18.5648 41.0585 18.3215C40.8499 18.0781 40.6876 17.7884 40.5718 17.4755C40.4443 17.1394 40.3863 16.8034 40.3979 16.4789C40.4095 16.1544 40.4791 15.8531 40.6065 15.575C40.734 15.2969 40.9194 15.0535 41.1512 14.8333C41.383 14.6247 41.6727 14.4509 41.9972 14.335C42.3101 14.2191 42.6114 14.1728 42.9011 14.1843C43.2024 14.1959 43.4689 14.2655 43.7355 14.3929C44.002 14.5204 44.2222 14.7174 44.4308 14.9608C44.6394 15.2157 44.8016 15.517 44.9407 15.8879L45.0218 16.1196L41.4525 17.4176C41.5336 17.603 41.6495 17.7652 41.7886 17.9159C41.9276 18.0665 42.0899 18.1708 42.2637 18.2635C42.4375 18.3447 42.6229 18.391 42.82 18.4142C43.017 18.4258 43.214 18.4026 43.4226 18.3215C43.747 18.2056 43.9904 18.0549 44.1758 17.8579C44.3496 17.6609 44.4887 17.4292 44.593 17.1394L45.2767 17.3596ZM43.9904 15.7836C43.8397 15.4127 43.608 15.1578 43.2951 15.0071C42.9822 14.8681 42.6229 14.8681 42.2058 15.0187C41.8002 15.1694 41.5104 15.4011 41.3366 15.714C41.1628 16.0269 41.128 16.3862 41.2091 16.7802L43.9904 15.7836Z" fill="white"/>
<path d="M48.1624 10.1283L52.4965 9.31714L52.6471 10.0936L49.1358 10.7425L49.5646 13.0603L52.821 12.4461L52.9716 13.2225L49.7152 13.8367L50.3062 16.9772L49.4719 17.1279L48.1624 10.1283Z" fill="white"/>
<path d="M53.8986 9.75761C53.887 9.60696 53.9218 9.4679 54.0145 9.34042C54.1072 9.21295 54.2463 9.14341 54.3969 9.13183C54.5592 9.10865 54.6983 9.155 54.8257 9.2593C54.9532 9.3636 55.0227 9.49107 55.0343 9.64172C55.0575 9.80396 55.0111 9.95462 54.9184 10.0705C54.8257 10.1864 54.6982 10.2559 54.5244 10.2791C54.3622 10.3023 54.2115 10.2559 54.0956 10.1632C53.9798 10.0473 53.9102 9.91985 53.8986 9.75761ZM54.2695 11.5654L55.0459 11.4843L55.5558 16.1661L54.7794 16.2472L54.2695 11.5654Z" fill="white"/>
<path d="M56.8654 12.3998C56.8538 12.1796 56.8423 11.9826 56.8307 11.7972C56.8075 11.6118 56.7959 11.4379 56.7959 11.2873L57.5376 11.2641C57.5376 11.3916 57.5492 11.5191 57.5607 11.6465C57.5723 11.774 57.5839 11.9015 57.5839 12.0406H57.6071C57.6535 11.9247 57.723 11.8088 57.8273 11.7045C57.92 11.5886 58.0359 11.4959 58.1634 11.4032C58.2908 11.3105 58.4415 11.2409 58.6037 11.183C58.766 11.1251 58.9514 11.1019 59.1484 11.0903C59.4613 11.0787 59.7278 11.1135 59.948 11.2062C60.1798 11.2873 60.3652 11.4148 60.5159 11.577C60.6665 11.7392 60.7824 11.9363 60.8635 12.1796C60.9446 12.4114 60.9794 12.6779 60.991 12.9561L61.0837 15.8648L60.2957 15.888L60.203 13.0603C60.1914 12.6663 60.0871 12.3534 59.9132 12.1333C59.7278 11.9131 59.4613 11.8088 59.0905 11.8204C58.8355 11.832 58.6153 11.8783 58.4415 11.971C58.2561 12.0637 58.117 12.1912 58.0011 12.3534C57.8852 12.5157 57.8041 12.7127 57.7578 12.9329C57.7114 13.1531 57.6882 13.3964 57.6998 13.6745L57.7693 15.9691L56.9813 15.9923L56.8654 12.3998Z" fill="white"/>
<path d="M62.6248 11.7972C62.8798 11.5654 63.1811 11.4032 63.5171 11.3105C63.8532 11.2178 64.2009 11.183 64.5369 11.2062C65.2322 11.2525 65.719 11.4495 66.0087 11.7972C66.2984 12.1448 66.4143 12.6547 66.3679 13.3269L66.2289 15.3433C66.2173 15.4824 66.2173 15.6214 66.2173 15.7605C66.2173 15.8996 66.2289 16.0386 66.2405 16.1545L65.4872 16.0966C65.464 15.9923 65.464 15.8648 65.464 15.7373C65.464 15.6098 65.4756 15.494 65.4872 15.3897H65.464C65.2902 15.6214 65.07 15.8068 64.8035 15.9343C64.5369 16.0734 64.224 16.1197 63.8648 16.0966C63.6214 16.085 63.4012 16.0386 63.1926 15.9575C62.9841 15.888 62.8102 15.7837 62.6596 15.6562C62.5089 15.5287 62.393 15.3781 62.3119 15.1927C62.2308 15.0072 62.196 14.8102 62.2192 14.5785C62.2424 14.196 62.3699 13.8947 62.5785 13.6861C62.7986 13.4775 63.0536 13.3385 63.3549 13.2458C63.6562 13.1646 63.9807 13.1183 64.3283 13.1067C64.676 13.1067 64.9889 13.1183 65.2786 13.1299L65.5799 13.1531L65.5915 13.014C65.6147 12.6779 65.5335 12.4114 65.3365 12.226C65.1395 12.0406 64.8614 11.9363 64.5022 11.9015C64.2472 11.8783 63.9923 11.9131 63.7489 11.971C63.5055 12.029 63.2738 12.1564 63.0768 12.3071L62.6248 11.7972ZM64.7571 13.7904C64.2588 13.7557 63.8532 13.802 63.5519 13.9179C63.2506 14.0338 63.0884 14.254 63.0652 14.5785C63.042 14.8682 63.1231 15.0884 63.3201 15.2274C63.5055 15.3665 63.7489 15.4476 64.0502 15.4592C64.282 15.4708 64.479 15.4476 64.6528 15.3897C64.8266 15.3201 64.9773 15.2274 65.1048 15.1115C65.2322 14.9956 65.325 14.845 65.3945 14.6828C65.464 14.5205 65.5104 14.3351 65.5335 14.1381L65.5567 13.8368L64.7571 13.7904Z" fill="white"/>
<path d="M68.0484 12.759C68.0832 12.5504 68.1179 12.3534 68.1295 12.1564C68.1527 11.971 68.1759 11.7971 68.199 11.6465L68.9291 11.774C68.9059 11.9014 68.8828 12.0289 68.8712 12.1564C68.8596 12.2839 68.8364 12.4113 68.8132 12.5388H68.8364C68.9059 12.4345 68.9987 12.3418 69.1145 12.2491C69.2304 12.1564 69.3579 12.0869 69.5086 12.0289C69.6592 11.971 69.8099 11.9246 69.9837 11.913C70.1575 11.8898 70.3429 11.9014 70.5284 11.9362C70.8297 11.9941 71.0846 12.0869 71.2932 12.2143C71.5018 12.3418 71.664 12.504 71.7799 12.701C71.8958 12.8865 71.9653 13.1066 72.0001 13.3616C72.0349 13.6165 72.0233 13.8715 71.9653 14.1496L71.467 17.012L70.6906 16.8729L71.1773 14.0917C71.2468 13.6977 71.2121 13.3848 71.0846 13.1298C70.9571 12.8749 70.7022 12.7126 70.3429 12.6547C70.088 12.6083 69.8678 12.6199 69.6708 12.6663C69.4738 12.7242 69.3 12.8169 69.1609 12.956C69.0218 13.0951 68.8944 13.2689 68.8016 13.4775C68.7089 13.6861 68.6394 13.9179 68.5931 14.1844L68.199 16.4442L67.4226 16.3051L68.0484 12.759Z" fill="white"/>
<path d="M76.9135 14.822C76.8092 14.5787 76.6702 14.3932 76.5079 14.2542C76.3457 14.1151 76.1487 14.0108 75.9285 13.9529C75.6736 13.8833 75.4418 13.8602 75.2216 13.8949C75.0014 13.9297 74.8044 13.9992 74.6422 14.1267C74.4683 14.2426 74.3293 14.3932 74.2018 14.5787C74.0743 14.7641 73.9816 14.9727 73.9237 15.2044C73.8541 15.4362 73.831 15.668 73.8541 15.8882C73.8657 16.1083 73.9237 16.3169 74.0164 16.5139C74.1091 16.711 74.225 16.8732 74.3988 17.0123C74.561 17.1513 74.7581 17.2556 74.9898 17.3251C75.4881 17.4642 75.9285 17.3831 76.2993 17.0818L76.7165 17.7771C76.4268 17.9625 76.1139 18.0784 75.7894 18.1132C75.465 18.1479 75.1289 18.1132 74.8044 18.0205C74.4568 17.9278 74.1554 17.7771 73.9005 17.5801C73.6455 17.3831 73.4369 17.1513 73.2979 16.8732C73.1588 16.6067 73.0661 16.3054 73.0313 15.9809C72.9966 15.6564 73.0313 15.3203 73.1356 14.9727C73.2284 14.625 73.379 14.3353 73.576 14.0688C73.773 13.8138 74.0048 13.6052 74.2713 13.443C74.5379 13.2923 74.8276 13.188 75.1521 13.1533C75.4765 13.1185 75.8126 13.1417 76.1603 13.246C76.4963 13.3387 76.7977 13.4893 77.0642 13.6863C77.3307 13.8833 77.5393 14.1383 77.7016 14.4512L76.9135 14.822Z" fill="white"/>
<path d="M78.9184 14.2656L79.6601 14.5321L78.0725 18.959L77.3308 18.6924L78.9184 14.2656ZM79.3704 12.4809C79.4167 12.3303 79.521 12.226 79.6601 12.1565C79.7992 12.0869 79.9498 12.0753 80.1005 12.1333C80.2511 12.1912 80.3554 12.2839 80.425 12.4346C80.4945 12.5852 80.4945 12.7243 80.4481 12.8634C80.3902 13.0256 80.2975 13.1299 80.1584 13.1994C80.0194 13.269 79.8687 13.269 79.7181 13.211C79.5558 13.1531 79.4515 13.0604 79.382 12.9213C79.3125 12.7823 79.3125 12.6316 79.3704 12.4809Z" fill="white"/>
<path d="M81.0275 15.6793C81.352 15.5519 81.6881 15.5055 82.0357 15.5287C82.3834 15.5519 82.7195 15.6446 83.0324 15.7721C83.6697 16.0502 84.0637 16.4094 84.2144 16.8382C84.365 17.267 84.3071 17.7769 84.029 18.3911L83.2062 20.2337C83.1482 20.3611 83.1019 20.4886 83.0555 20.6277C83.0092 20.7667 82.9744 20.8942 82.9396 21.0101L82.2559 20.7088C82.2791 20.6045 82.3139 20.4886 82.3602 20.3611C82.4066 20.2453 82.4529 20.1294 82.4993 20.0367L82.4761 20.0251C82.2327 20.1873 81.9662 20.28 81.6649 20.3148C81.3636 20.3496 81.0507 20.2916 80.7262 20.1525C80.506 20.0598 80.309 19.9324 80.1468 19.7933C79.973 19.6542 79.8455 19.492 79.7528 19.3298C79.6601 19.1559 79.6021 18.9705 79.5905 18.7735C79.5789 18.5765 79.6137 18.3679 79.7064 18.1593C79.8687 17.8001 80.0772 17.5683 80.3554 17.4408C80.6335 17.3249 80.9232 17.267 81.2361 17.2902C81.549 17.3133 81.8735 17.3829 82.198 17.4988C82.5225 17.6146 82.8238 17.7305 83.0787 17.8464L83.3568 17.9739L83.4148 17.8464C83.5538 17.5335 83.5654 17.2554 83.4495 17.012C83.3337 16.7687 83.1019 16.5717 82.7658 16.421C82.534 16.3167 82.2907 16.2588 82.0357 16.2356C81.7808 16.2124 81.5258 16.2472 81.2825 16.3283L81.0275 15.6793ZM82.3602 18.2752C81.8967 18.0666 81.5027 17.9739 81.1782 17.9855C80.8537 17.9971 80.6219 18.1477 80.4944 18.4374C80.3786 18.704 80.3786 18.9357 80.506 19.1327C80.6335 19.3298 80.8421 19.4804 81.1086 19.6079C81.3172 19.7006 81.5142 19.7469 81.6997 19.7469C81.8851 19.7469 82.0589 19.7122 82.2096 19.6426C82.3602 19.5731 82.5109 19.4688 82.6268 19.3413C82.7542 19.2139 82.8585 19.0516 82.9396 18.8778L83.0671 18.5997L82.3602 18.2752Z" fill="white"/>
<path d="M87.6795 14.9377L88.3748 15.3086L84.7939 22.0068L84.0986 21.636L87.6795 14.9377Z" fill="white"/>
<path d="M42.1013 102.513C42.0434 102.154 41.9043 101.841 41.6957 101.574C41.4871 101.296 41.2206 101.087 40.9193 100.925C40.5716 100.74 40.2124 100.647 39.8416 100.635C39.4707 100.624 39.1231 100.693 38.7754 100.821C38.4393 100.948 38.1264 101.145 37.8367 101.4C37.5586 101.655 37.3268 101.957 37.1414 102.304C36.956 102.675 36.8285 103.046 36.7938 103.428C36.7474 103.811 36.7706 104.17 36.8633 104.518C36.956 104.865 37.1066 105.178 37.3384 105.468C37.5586 105.758 37.8483 105.989 38.2076 106.175C38.59 106.372 38.984 106.476 39.3664 106.476C39.7488 106.476 40.1313 106.395 40.5021 106.233L40.8266 106.998C40.3399 107.229 39.8531 107.334 39.3664 107.31C38.8681 107.287 38.3698 107.137 37.8599 106.882C37.4079 106.65 37.0255 106.349 36.7242 105.978C36.4229 105.607 36.1911 105.201 36.0637 104.761C35.9246 104.321 35.8783 103.846 35.9246 103.359C35.971 102.872 36.1216 102.385 36.365 101.899C36.6083 101.435 36.9096 101.041 37.2689 100.717C37.6397 100.392 38.0337 100.16 38.4741 100.01C38.9145 99.859 39.378 99.8011 39.8531 99.8243C40.3399 99.859 40.815 99.9865 41.2785 100.23C41.7073 100.45 42.0782 100.74 42.4026 101.099C42.7271 101.458 42.9241 101.887 43.0052 102.374L42.1013 102.513Z" fill="white"/>
<path d="M42.4026 106.233C42.5185 105.885 42.6923 105.584 42.9125 105.34C43.1327 105.097 43.3761 104.912 43.6658 104.772C43.9439 104.633 44.2568 104.564 44.5813 104.552C44.9174 104.541 45.2534 104.587 45.5895 104.714C45.9372 104.83 46.2269 105.004 46.4818 105.213C46.7368 105.433 46.9338 105.676 47.0612 105.954C47.2003 106.233 47.2814 106.534 47.3046 106.858C47.3278 107.183 47.2814 107.519 47.154 107.867C47.0381 108.214 46.8642 108.516 46.6441 108.759C46.4239 109.002 46.1805 109.188 45.8908 109.327C45.6127 109.466 45.2998 109.535 44.9753 109.547C44.6508 109.559 44.3032 109.512 43.9671 109.385C43.6194 109.269 43.3297 109.095 43.0748 108.886C42.8198 108.666 42.6228 108.423 42.4953 108.145C42.3563 107.867 42.2751 107.565 42.252 107.241C42.2404 106.928 42.2867 106.58 42.4026 106.233ZM43.2022 106.511C43.1211 106.743 43.0864 106.974 43.0864 107.194C43.0864 107.415 43.1327 107.635 43.2254 107.832C43.3181 108.029 43.434 108.203 43.6078 108.353C43.7701 108.504 43.9787 108.62 44.2104 108.701C44.4538 108.782 44.6856 108.817 44.9058 108.794C45.1259 108.77 45.3345 108.713 45.5316 108.62C45.717 108.516 45.8908 108.376 46.0299 108.203C46.1689 108.029 46.2848 107.82 46.3659 107.588C46.447 107.357 46.4818 107.125 46.4818 106.905C46.4818 106.685 46.4355 106.464 46.3428 106.267C46.25 106.07 46.1342 105.897 45.9603 105.746C45.7981 105.595 45.5895 105.479 45.3577 105.398C45.1144 105.317 44.8826 105.282 44.6624 105.306C44.4422 105.329 44.2336 105.387 44.0366 105.479C43.8512 105.584 43.6774 105.723 43.5383 105.897C43.3992 106.07 43.2834 106.279 43.2022 106.511Z" fill="white"/>
<path d="M48.8576 107.125C48.8924 106.916 48.9271 106.719 48.9387 106.522C48.9619 106.337 48.9851 106.163 49.0082 106.012L49.7383 106.14C49.7151 106.267 49.692 106.395 49.6804 106.522C49.6688 106.65 49.6456 106.777 49.6224 106.905H49.6456C49.7151 106.8 49.8079 106.708 49.9237 106.615C50.0396 106.522 50.1671 106.453 50.3177 106.395C50.4684 106.337 50.6191 106.291 50.7929 106.279C50.9667 106.256 51.1521 106.267 51.3375 106.302C51.5925 106.349 51.7895 106.418 51.9517 106.511C52.114 106.603 52.2415 106.708 52.3342 106.812C52.4269 106.916 52.4964 107.032 52.5428 107.148C52.5891 107.264 52.6239 107.357 52.6471 107.449C52.8672 107.206 53.099 107.021 53.354 106.905C53.6089 106.789 53.9102 106.766 54.2695 106.824C54.5939 106.882 54.8721 106.974 55.0807 107.102C55.2893 107.229 55.4515 107.391 55.5558 107.588C55.6601 107.785 55.7296 108.006 55.7412 108.249C55.7644 108.504 55.7412 108.771 55.6833 109.072L55.1966 111.888L54.4201 111.749L54.9068 108.979C54.93 108.817 54.9416 108.666 54.9416 108.504C54.93 108.342 54.8952 108.203 54.8373 108.064C54.7678 107.925 54.6751 107.809 54.536 107.716C54.4085 107.623 54.2231 107.554 54.0029 107.507C53.8407 107.484 53.6784 107.484 53.5162 107.531C53.354 107.577 53.2149 107.646 53.0874 107.739C52.96 107.843 52.8441 107.971 52.7514 108.122C52.6586 108.284 52.6007 108.458 52.5543 108.666L52.0908 111.343L51.3144 111.204L51.7779 108.585C51.8706 108.075 51.859 107.693 51.7663 107.449C51.662 107.206 51.4534 107.067 51.1405 107.009C50.8856 106.963 50.6654 106.974 50.4684 107.021C50.2714 107.079 50.0976 107.171 49.9585 107.31C49.8194 107.449 49.692 107.623 49.5993 107.832C49.5065 108.04 49.437 108.272 49.3907 108.539L48.9966 110.799L48.2202 110.659L48.8576 107.125Z" fill="white"/>
<path d="M57.491 108.492C57.491 108.272 57.4795 108.075 57.4563 107.89C57.4447 107.704 57.4331 107.531 57.4331 107.38L58.1748 107.368C58.1748 107.496 58.1864 107.623 58.1864 107.751C58.198 107.878 58.198 108.006 58.198 108.145H58.2211C58.2675 108.029 58.3486 107.913 58.4413 107.809C58.534 107.704 58.6499 107.6 58.789 107.519C58.9164 107.438 59.0671 107.368 59.2409 107.31C59.4032 107.253 59.5886 107.229 59.7856 107.229C60.0405 107.229 60.2491 107.253 60.423 107.31C60.5968 107.368 60.7359 107.45 60.8517 107.531C60.9676 107.623 61.0603 107.716 61.1183 107.82C61.1878 107.925 61.2342 108.017 61.2805 108.098C61.4544 107.809 61.6514 107.589 61.8715 107.426C62.0917 107.264 62.393 107.183 62.7523 107.171C63.0883 107.171 63.3665 107.206 63.5982 107.299C63.83 107.38 64.0154 107.519 64.1545 107.681C64.2936 107.855 64.3979 108.052 64.4674 108.295C64.5369 108.539 64.5717 108.817 64.5717 109.118L64.618 111.969L63.83 111.981L63.7837 109.165C63.7837 109.002 63.7605 108.852 63.7257 108.689C63.691 108.539 63.6214 108.4 63.5403 108.284C63.4476 108.168 63.3317 108.064 63.1811 107.994C63.0304 107.925 62.845 107.89 62.6132 107.89C62.451 107.89 62.2887 107.925 62.1381 107.994C61.9874 108.064 61.86 108.156 61.7557 108.284C61.6514 108.411 61.5586 108.55 61.5007 108.724C61.4428 108.898 61.408 109.084 61.4196 109.292L61.4659 112.004L60.6779 112.015L60.6316 109.35C60.62 108.829 60.5504 108.458 60.3998 108.238C60.2607 108.017 60.0174 107.913 59.7045 107.925C59.4495 107.925 59.2293 107.971 59.0439 108.064C58.8585 108.156 58.7079 108.284 58.592 108.446C58.4761 108.608 58.395 108.805 58.337 109.026C58.2791 109.246 58.2559 109.489 58.2675 109.756L58.3023 112.05L57.5142 112.062L57.491 108.492Z" fill="white"/>
<path d="M65.6377 105.19C65.6146 105.039 65.6609 104.9 65.7536 104.772C65.8463 104.645 65.9738 104.575 66.136 104.552C66.2983 104.529 66.4373 104.575 66.5648 104.668C66.6923 104.772 66.7618 104.888 66.785 105.051C66.8082 105.213 66.7734 105.363 66.6807 105.479C66.588 105.595 66.4605 105.665 66.2867 105.688C66.1245 105.711 65.9738 105.676 65.8579 105.584C65.7305 105.491 65.6493 105.352 65.6377 105.19ZM66.0549 106.997L66.8314 106.893L67.434 111.563L66.6575 111.668L66.0549 106.997Z" fill="white"/>
<path d="M69.1491 110.045C69.3345 110.208 69.5315 110.323 69.7401 110.393C69.9487 110.462 70.1805 110.474 70.4586 110.416C70.5745 110.393 70.6904 110.358 70.8063 110.3C70.9221 110.254 71.0264 110.184 71.1076 110.103C71.1887 110.022 71.2582 109.929 71.293 109.837C71.3393 109.732 71.3393 109.628 71.3162 109.501C71.293 109.373 71.2466 109.28 71.1655 109.211C71.096 109.141 71.0033 109.095 70.899 109.06C70.7947 109.026 70.6788 109.002 70.5513 108.991C70.4238 108.979 70.2964 108.979 70.1689 108.979C69.9371 108.979 69.7285 108.968 69.5199 108.944C69.3113 108.921 69.1259 108.886 68.9521 108.817C68.7898 108.747 68.6392 108.655 68.5233 108.516C68.4074 108.388 68.3147 108.203 68.2683 107.959C68.222 107.739 68.2336 107.531 68.2915 107.334C68.3495 107.148 68.4538 106.974 68.5928 106.824C68.7319 106.673 68.9057 106.557 69.0911 106.453C69.2881 106.349 69.4852 106.279 69.7053 106.233C70.0298 106.163 70.3543 106.163 70.6556 106.244C70.9569 106.314 71.2235 106.488 71.4436 106.754L70.8874 107.31C70.7599 107.171 70.5977 107.055 70.4122 106.986C70.2268 106.916 70.0298 106.905 69.798 106.951C69.6938 106.974 69.5895 107.009 69.4852 107.055C69.3809 107.102 69.2881 107.16 69.2186 107.229C69.1491 107.299 69.0911 107.38 69.0448 107.473C69.01 107.565 68.9984 107.67 69.0216 107.774C69.0448 107.867 69.0911 107.948 69.1723 108.006C69.2534 108.064 69.3461 108.11 69.462 108.133C69.5779 108.168 69.7169 108.18 69.8676 108.191C70.0182 108.203 70.1689 108.203 70.3311 108.203C70.5397 108.203 70.7483 108.214 70.9453 108.237C71.1423 108.261 71.3162 108.319 71.4784 108.388C71.6406 108.469 71.7681 108.574 71.884 108.713C71.9999 108.852 72.0694 109.037 72.1158 109.269C72.1737 109.535 72.1621 109.767 72.0926 109.976C72.0231 110.184 71.9188 110.358 71.7681 110.509C71.6175 110.66 71.4436 110.787 71.2235 110.88C71.0149 110.972 70.7947 111.054 70.5629 111.1C70.1689 111.181 69.8212 111.193 69.5083 111.123C69.1954 111.065 68.8941 110.891 68.5928 110.602L69.1491 110.045Z" fill="white"/>
<path d="M73.6108 109.037C73.8194 109.176 74.0164 109.28 74.2366 109.327C74.4452 109.385 74.6885 109.373 74.9551 109.28C75.071 109.246 75.1868 109.199 75.2911 109.13C75.407 109.072 75.4997 108.991 75.5693 108.91C75.6504 108.817 75.7083 108.724 75.7315 108.62C75.7663 108.516 75.7547 108.4 75.7199 108.284C75.6852 108.156 75.6272 108.075 75.5461 108.006C75.465 107.948 75.3723 107.901 75.268 107.878C75.1637 107.855 75.0478 107.843 74.9203 107.843C74.7928 107.843 74.6654 107.855 74.5379 107.867C74.3177 107.89 74.0975 107.901 73.8889 107.901C73.6803 107.901 73.4833 107.878 73.3095 107.832C73.1357 107.786 72.985 107.693 72.8575 107.577C72.7301 107.461 72.6258 107.276 72.5562 107.044C72.4867 106.824 72.4751 106.615 72.5215 106.418C72.5678 106.221 72.6489 106.047 72.7764 105.885C72.9039 105.723 73.0545 105.584 73.24 105.468C73.4254 105.352 73.6224 105.259 73.831 105.19C74.1555 105.097 74.4683 105.062 74.7812 105.109C75.0941 105.155 75.3723 105.294 75.6156 105.537L75.1173 106.14C74.9667 106.012 74.8044 105.92 74.619 105.862C74.4336 105.815 74.225 105.815 74.0048 105.885C73.9005 105.92 73.8078 105.966 73.7035 106.024C73.6108 106.082 73.5181 106.152 73.4601 106.221C73.3906 106.302 73.3443 106.383 73.3095 106.476C73.2747 106.569 73.2747 106.673 73.3095 106.777C73.3443 106.87 73.3906 106.951 73.4717 106.998C73.5529 107.044 73.6571 107.079 73.773 107.102C73.8889 107.125 74.028 107.125 74.1786 107.125C74.3293 107.125 74.4799 107.113 74.6306 107.09C74.8392 107.067 75.0478 107.055 75.2448 107.067C75.4418 107.079 75.6272 107.102 75.7895 107.171C75.9517 107.229 76.1023 107.334 76.2298 107.461C76.3573 107.589 76.45 107.774 76.5195 107.994C76.6007 108.249 76.6122 108.481 76.5659 108.689C76.5195 108.898 76.4268 109.083 76.2878 109.257C76.1487 109.42 75.9865 109.559 75.7895 109.674C75.5924 109.79 75.3839 109.883 75.1521 109.953C74.7697 110.068 74.422 110.115 74.0975 110.08C73.7846 110.045 73.4601 109.906 73.1472 109.651L73.6108 109.037Z" fill="white"/>
<path d="M75.7894 102.744C75.7315 102.605 75.7315 102.455 75.801 102.304C75.859 102.153 75.9632 102.061 76.1139 102.003C76.2646 101.945 76.4152 101.945 76.5543 102.014C76.6933 102.084 76.7976 102.188 76.8556 102.327C76.9135 102.478 76.9135 102.629 76.8556 102.768C76.7976 102.907 76.6817 103.011 76.5311 103.069C76.3804 103.127 76.2298 103.127 76.0907 103.069C75.9517 103.011 75.8474 102.895 75.7894 102.744ZM76.6238 104.39L77.3539 104.112L79.0574 108.504L78.3273 108.782L76.6238 104.39Z" fill="white"/>
<path d="M79.6022 105.792C79.4399 105.468 79.3472 105.132 79.324 104.807C79.3008 104.483 79.3472 104.17 79.4399 103.88C79.5442 103.591 79.7065 103.312 79.9266 103.069C80.1468 102.826 80.4249 102.617 80.7494 102.455C81.0739 102.293 81.3984 102.2 81.7345 102.165C82.0589 102.13 82.3718 102.165 82.6731 102.269C82.9628 102.362 83.241 102.524 83.4843 102.733C83.7277 102.942 83.9363 103.22 84.0985 103.544C84.2608 103.869 84.3535 104.205 84.3767 104.529C84.3998 104.854 84.3535 105.167 84.2608 105.456C84.1565 105.746 83.9942 106.024 83.7741 106.267C83.5539 106.511 83.2757 106.719 82.9513 106.882C82.6268 107.044 82.3023 107.137 81.9662 107.171C81.6418 107.206 81.3289 107.171 81.0276 107.067C80.7378 106.974 80.4597 106.812 80.2164 106.604C79.973 106.395 79.7644 106.128 79.6022 105.792ZM80.3554 105.422C80.4713 105.642 80.5988 105.827 80.761 105.989C80.9233 106.14 81.1087 106.256 81.3057 106.337C81.5027 106.418 81.7229 106.441 81.9431 106.43C82.1632 106.418 82.395 106.36 82.6152 106.244C82.847 106.128 83.0324 105.989 83.1714 105.816C83.3105 105.642 83.4148 105.456 83.4728 105.248C83.5307 105.039 83.5539 104.831 83.5307 104.599C83.5075 104.379 83.438 104.158 83.3221 103.927C83.2062 103.706 83.0787 103.521 82.9165 103.359C82.7543 103.208 82.5688 103.092 82.3718 103.011C82.1748 102.942 81.9546 102.907 81.7345 102.918C81.5143 102.93 81.2825 102.988 81.0623 103.104C80.8305 103.22 80.6451 103.359 80.5061 103.533C80.367 103.706 80.2627 103.892 80.2048 104.1C80.1468 104.309 80.1236 104.518 80.1468 104.749C80.1816 104.97 80.2395 105.19 80.3554 105.422Z" fill="white"/>
<path d="M84.6778 101.76C84.5619 101.586 84.446 101.412 84.3301 101.273C84.2142 101.122 84.1099 100.983 84.0288 100.856L84.643 100.438C84.7125 100.543 84.7821 100.647 84.8632 100.751C84.9443 100.856 85.0138 100.96 85.0834 101.076L85.095 101.064C85.0718 100.937 85.0834 100.809 85.095 100.659C85.1181 100.52 85.1645 100.369 85.2224 100.23C85.292 100.091 85.3731 99.9517 85.489 99.8126C85.6048 99.6736 85.7323 99.5577 85.8946 99.4534C86.1495 99.2795 86.4045 99.1753 86.6362 99.1289C86.8796 99.0825 87.0998 99.0825 87.32 99.1405C87.5401 99.1984 87.7371 99.3027 87.9342 99.465C88.1196 99.6272 88.2934 99.8242 88.4556 100.056L90.0665 102.478L89.4175 102.918L87.853 100.566C87.6329 100.241 87.3895 100.021 87.1114 99.9285C86.8448 99.8358 86.5551 99.8937 86.2422 100.091C86.0336 100.23 85.8714 100.392 85.7671 100.566C85.6628 100.74 85.6049 100.925 85.5933 101.122C85.5817 101.319 85.6164 101.528 85.6976 101.748C85.7671 101.968 85.883 102.188 86.0336 102.408L87.3084 104.321L86.6594 104.761L84.6778 101.76Z" fill="white"/>
</svg>
